<svg id="Layer_1" data-name="Layer 1" xmlns="http://www.w3.org/2000/svg" viewBox="0 0 44 44"><defs><style>.cls-1,.cls-2{fill:#140a08;}.cls-2{stroke:#000;stroke-miterlimit:10;}</style></defs><path class="cls-1" d="M22,43.79A21.79,21.79,0,1,0,.21,22,21.81,21.81,0,0,0,22,43.79ZM7.53,7.53a20.45,20.45,0,0,1,28.94,0,20.45,20.45,0,0,1,0,28.94,20.45,20.45,0,0,1-28.94,0,20.45,20.45,0,0,1,0-28.94Z"/><polygon class="cls-2" points="17.51 31.3 22.7 22.45 22.91 22.45 22.91 7.9 21.59 7.9 21.59 21.74 16.37 30.63 17.51 31.3"/></svg>