<svg id="Layer_1" data-name="Layer 1" xmlns="http://www.w3.org/2000/svg" viewBox="0 0 44 44"><defs><style>.cls-1{fill:#140a08;}</style></defs><g id="VDMInL"><path class="cls-1" d="M28.1,5.78h2.57A9.52,9.52,0,0,1,35.21,8a1,1,0,0,0,.88.12c1.24-.41,2.46-.88,3.69-1.33l.84-.35a8.7,8.7,0,0,1-3,4.11l.17.26,3.94-1.22v.16c-1.22,1.27-2.46,2.52-3.65,3.81a1.81,1.81,0,0,0-.35,1c-.13,1.25-.09,2.52-.33,3.75-1.82,9.51-7.06,16.11-16.5,19a38.23,38.23,0,0,1-4.39.85H12.2a4.88,4.88,0,0,0-.55-.12,23.08,23.08,0,0,1-8.8-2.86c-.25-.15-.49-.33-.61-.41,2-.27,4-.42,5.9-.84a13.21,13.21,0,0,0,5.55-2.77,8.79,8.79,0,0,1-4.63-1.73,7.4,7.4,0,0,1-2.77-4H9.41l0-.2a8.06,8.06,0,0,1-4.39-2.93,7.81,7.81,0,0,1-1.71-5l3.17.86L6.63,18a8.49,8.49,0,0,1-3-4.86,7.69,7.69,0,0,1,.88-5.65c.19.07.25.07.28.11.69.68,1.34,1.38,2.05,2a22.92,22.92,0,0,0,13.27,6.08c1.17.14,1.24,0,1.17-1.11A8.16,8.16,0,0,1,23.3,8.51,9.12,9.12,0,0,1,28.1,5.78Z"/></g></svg>