<svg id="Layer_1" data-name="Layer 1" xmlns="http://www.w3.org/2000/svg" viewBox="0 0 55.29 53.16"><defs><style>.cls-1,.cls-4,.cls-5{fill:#e5e9ec;}.cls-1,.cls-5,.cls-6{stroke:#091d1e;}.cls-1,.cls-2,.cls-3,.cls-5{stroke-miterlimit:10;}.cls-1,.cls-2,.cls-3{stroke-width:0.75px;}.cls-2{fill:#091d1e;}.cls-2,.cls-3{stroke:#e5e9ec;}.cls-3,.cls-6{fill:none;}.cls-6{stroke-linecap:round;stroke-linejoin:round;}</style></defs><ellipse class="cls-1" cx="33.25" cy="25.32" rx="12.43" ry="20.97" transform="translate(6.29 57.26) rotate(-87.13)"/><path class="cls-2" d="M49.38,24.64c-.25,5.11-7.45,8.9-16.07,8.47s-15.4-4.93-15.14-10L19,11.75l31.21,1.57Z"/><ellipse class="cls-2" cx="34.55" cy="12.54" rx="9.26" ry="15.63" transform="translate(20.3 46.42) rotate(-87.13)"/><polygon class="cls-3" points="22.24 12 21.54 13.9 23.28 14.97 23.8 16.94 25.84 17.15 26.97 18.85 29 18.55 30.47 19.97 32.4 19.3 34.09 20.45 35.89 19.47 37.75 20.34 39.35 19.06 41.34 19.57 42.63 17.99 44.68 17.98 45.4 16.08 47.23 15.18 46.73 13.23 47.43 11.33 45.69 10.25 45.16 8.29 43.13 8.07 41.99 6.37 39.97 6.68 38.5 5.25 36.57 5.93 34.88 4.77 33.08 5.75 31.22 4.89 29.62 6.16 27.63 5.65 26.34 7.23 24.29 7.24 23.57 9.14 21.73 10.04 22.24 12"/><path class="cls-4" d="M49.65,20.63s-2.41,9.1-16.23,8.13-15-8.7-15-8.7l.17-2.31s1.15,7.78,15,8.75,16.31-8.19,16.31-8.19Z"/><ellipse class="cls-1" cx="34.14" cy="43.27" rx="7.45" ry="12.57" transform="translate(-10.79 75.2) rotate(-87.13)"/><path class="cls-2" d="M45,40.12c-.09,1.71-2.5,3-5.38,2.84s-5.16-1.65-5.07-3.36l.26-1.46,10.45.53Z"/><ellipse class="cls-2" cx="40.06" cy="38.4" rx="3.1" ry="5.23" transform="translate(-0.3 76.49) rotate(-87.13)"/><path class="cls-2" d="M33,43.12c-.09,1.71-2.5,3-5.38,2.84s-5.16-1.65-5.07-3.36l.26-1.46,10.45.53Z"/><ellipse class="cls-2" cx="28.06" cy="41.4" rx="3.1" ry="5.23" transform="translate(-14.7 67.36) rotate(-87.13)"/><path class="cls-2" d="M37,39.12c-.09,1.71-2.5,3-5.38,2.84s-5.16-1.65-5.07-3.36l.26-1.46,10.45.53Z"/><ellipse class="cls-2" cx="32.06" cy="37.4" rx="3.1" ry="5.23" transform="translate(-6.9 67.55) rotate(-87.13)"/><path class="cls-2" d="M41,46.12c-.09,1.71-2.5,3-5.38,2.84s-5.16-1.65-5.07-3.36l.26-1.46,10.45.53Z"/><ellipse class="cls-2" cx="36.06" cy="44.4" rx="3.1" ry="5.23" transform="translate(-10.09 78.2) rotate(-87.13)"/><path class="cls-2" d="M41,42.12c-.09,1.71-2.5,3-5.38,2.84s-5.16-1.65-5.07-3.36l.26-1.46,10.45.53Z"/><ellipse class="cls-2" cx="36.06" cy="40.4" rx="3.1" ry="5.23" transform="translate(-6.1 74.4) rotate(-87.13)"/><path class="cls-5" d="M13.35,32.67,5.47,34.2l5,6.15s.81,1.76,4.53,1,3.81-2.64,3.81-2.64l2.38-7.6Z"/><line class="cls-6" x1="12.05" y1="40.4" x2="10.99" y2="38.28"/><line class="cls-6" x1="14.27" y1="37.79" x2="14.87" y2="40.43"/><line class="cls-6" x1="17.93" y1="36.12" x2="17.64" y2="39.32"/><ellipse class="cls-2" cx="12.26" cy="30.15" rx="11.39" ry="6.75" transform="translate(-8.28 4.9) rotate(-17)"/><path class="cls-2" d="M14.81,18.89a10,10,0,0,0-7.25-1.32s5.92.86-1.66,4.42C2,23.84,2.17,27.33,3.62,29.37c2.32,3.28,8.73,2.82,11.79-.47C17.93,26.18,17.9,21.07,14.81,18.89Z"/><circle class="cls-2" cx="7.36" cy="16.99" r="2.21"/></svg>