<svg id="Layer_1" data-name="Layer 1" xmlns="http://www.w3.org/2000/svg" viewBox="0 0 55.29 53.16"><defs><style>.cls-1{fill:#091d1e;}.cls-2{fill:#e5e9ec;}</style></defs><path class="cls-1" d="M54.55,32.52l-.4-.13L55,28.24a.5.5,0,0,0-.12-.44.49.49,0,0,0-.39-.19h-2V25.8a.52.52,0,0,0-.52-.52H48.36c-1.23-3.46-4.44-6.26-9.12-8a5,5,0,0,0-1-2,5.42,5.42,0,0,0-3-1.77l-.1,0-.16,0c0-.22,0-.42-.05-.63l3.41-3.55a1.64,1.64,0,0,0,0-2.3A1.64,1.64,0,0,0,36,7L34,9.15a10.69,10.69,0,0,0-2.34-3.37,16.08,16.08,0,0,0-3.5-2.49l.33-1a1.66,1.66,0,0,0-.6-1.83A2,2,0,0,0,27.37.2a1.55,1.55,0,0,0-.48-.07,1.64,1.64,0,0,0-1.57,1.13L25.08,2a21.7,21.7,0,0,0-6.26-.95c-.55,0-.89,0-1,0a.53.53,0,0,0-.11,1c.88.26,3.39,1.29,3.39,2.49,0,.61-.76,2.24-7.77,4.35-.3.09-.59.2-.89.31L9.37,5.84a1.7,1.7,0,0,0-1.22-.53,1.62,1.62,0,0,0-1.09.42,1.62,1.62,0,0,0-.54,1.12A1.65,1.65,0,0,0,6.94,8l2.54,2.82a9.17,9.17,0,0,0-3.19,3.83,9.7,9.7,0,0,0-.62,2.26L2.15,15.78a1.28,1.28,0,0,0-.51-.09,1.62,1.62,0,0,0-1.55,1.1,1.58,1.58,0,0,0,.09,1.26,1.62,1.62,0,0,0,.94.82l4.7,1.56a9.25,9.25,0,0,0,.34,1.25A9,9,0,0,0,6.69,23c.06.12.14.24.2.35l0,0a18.48,18.48,0,0,0-1.45,1.51H.83a.53.53,0,0,0-.53.52v3.21A.55.55,0,0,0,.52,29l.53.37v5.56l-.51.34a.54.54,0,0,0-.24.44v3.2a.52.52,0,0,0,.53.52l4.2.05a16.45,16.45,0,0,0,6,4,26.49,26.49,0,0,0,4.47,1.31l.69.13.41.68.94,1.56.2.33,1.16,1.95c.15.42,1,2.37,4.46,3.18a8.9,8.9,0,0,0,1,.21,16.38,16.38,0,0,0,2.35.16h.9a17.56,17.56,0,0,0,1.76-.15c5.49-.74,6.49-3.57,6.62-4.09L39.8,41c.46-.25.89-.52,1.31-.8s.71-.47,1-.73h6.26a4.83,4.83,0,0,0,1.21.14,4.72,4.72,0,0,0,3.54-1.47,5.9,5.9,0,0,0,1.48-3.34l.25-1.74A.52.52,0,0,0,54.55,32.52Z"/><path class="cls-2" d="M27.71,43.54a36.82,36.82,0,0,1-5.34.12c-.51,0-1-.07-1.54-.12a31,31,0,0,1-4.64-.81l3.24,5.86s.85,3.42,8,3.48a11.72,11.72,0,0,0,6.22-1.3,3.74,3.74,0,0,0,1.79-2l3-7.94C34.87,42.83,32.51,43.1,27.71,43.54ZM23,50.28a.45.45,0,0,1-.16,0,.53.53,0,0,1-.5-.37l-1.39-4.29a.53.53,0,0,1,.35-.66.51.51,0,0,1,.49.11.44.44,0,0,1,.17.24l0,.09,1.35,4.18A.53.53,0,0,1,23,50.28Zm5.18.89h0a.52.52,0,0,1-.52-.48v-.13l-.38-5a.53.53,0,0,1,1.06-.09l.37,5.16a.41.41,0,0,1,0,.16A.5.5,0,0,1,28.15,51.17Zm5-1.71a.52.52,0,0,1-.51.4h-.13a.55.55,0,0,1-.38-.65l1.44-4.88a.53.53,0,1,1,1,.25Z"/><path class="cls-2" d="M19.63,29.09A17.85,17.85,0,0,0,29.31,26l-.13-.27a4.09,4.09,0,0,1-.24-.75,17.36,17.36,0,0,1-13.66,2.71v1.07a18.88,18.88,0,0,0,3,.34A5.16,5.16,0,0,1,19.63,29.09Z"/><path class="cls-2" d="M12.46,24.29h.29c1.69-.12,2-1.42,2.11-2.39a6.39,6.39,0,0,0-1.53-4.29l-.26-.37a1.87,1.87,0,0,1-.54-1.48c.09-1,.48-1,1-1,.31,0,.88-.06.95-.66a.78.78,0,0,0-.17-.63,1.11,1.11,0,0,0-.84-.31h-.37c-.89.06-2,.54-2.2,2.44a3,3,0,0,0,.74,2.28c.93,1.26,1.74,2.36,1.61,3.86a1.52,1.52,0,0,1-.3.94s-.15.13-.49.09c-.09,0-.14,0-.27-.25a1.06,1.06,0,0,0-.81-.57h-.06a.85.85,0,0,0-.78.77v.13c.06.9,1.25,1.4,1.85,1.46Z"/><path class="cls-2" d="M18.15,11.73h0a2.76,2.76,0,0,0-2.55,2.39,11.66,11.66,0,0,0-.17,3.46A16,16,0,0,0,16,21.36c.72,2.06,1.84,2.53,2.71,2.53h.18c1.61-.11,2.23-1.93,2.27-3.45C21.23,14.75,20.21,11.81,18.15,11.73Zm.63,10.63c-1,.07-1.56-1.59-1.78-4.95,0,0-.06-.81-.07-1.28a5.8,5.8,0,0,1,.22-1.74c.2-.68.47-1.09.75-1.12.78,0,1.5,2.82,1.63,4.8C19.75,21.19,19.26,22.33,18.78,22.36Z"/><path class="cls-2" d="M16.88,11.86H17a1.32,1.32,0,0,0,.55-.14.69.69,0,0,0,.37-.69,1.06,1.06,0,0,0-1.13-1h0a1,1,0,0,0-.55.28.84.84,0,0,0-.28.61,1,1,0,0,0,.34.75A.86.86,0,0,0,16.88,11.86Z"/><path class="cls-2" d="M18.74,11.62h.06c.8-.06.85-.61.83-.84a1,1,0,0,0-1-1h0a.81.81,0,0,0-.53.3.82.82,0,0,0-.23.58C17.9,11.36,18.35,11.62,18.74,11.62Z"/><path class="cls-2" d="M21.71,13.21,22.6,22c0,.39.48.54.76.54h.05c.27,0,.76-.23.73-.66l-.88-8.85.82-.05a.73.73,0,0,0,.46-.23.63.63,0,0,0,.18-.49c0-.54-.47-.82-1.31-.79l-1.2.09c-1.46,0-1.91.16-1.89,1.15C20.42,13.28,21,13.29,21.71,13.21Z"/><path class="cls-2" d="M26.24,12.9l.88,8.8c0,.42.51.55.77.55h.05c.27,0,.76-.23.73-.66l-.88-8.85.82-.05a.73.73,0,0,0,.64-.72c0-.55-.46-.82-1.31-.79l-1.21.08c-1.45,0-1.9.17-1.89,1.16C25,13,25.54,13,26.24,12.9Z"/><path class="cls-2" d="M38,25.17c.35-.29.67-.57.93-.8a7.74,7.74,0,0,0,.64-.63l-1-1.32c-.22.22-.46.43-.69.64s-.47.42-.73.63l-.08.06L35.35,21a7.69,7.69,0,0,0,1.72-1.26,2.28,2.28,0,0,0,.61-1.31,2.33,2.33,0,0,0-.54-1.9,2.86,2.86,0,0,0-1.89-1l-.48,0a2.71,2.71,0,0,0-1.63.5,2.62,2.62,0,0,0-1,1.8A3.69,3.69,0,0,0,33,20.35l-.11.07-.06,0-.83.42a3.46,3.46,0,0,0-2.06,2.66,3.31,3.31,0,0,0,.73,2.59,3.79,3.79,0,0,0,2.49,1.33l.47,0a5,5,0,0,0,3.06-1.23l1,1.58,2.18.28Zm-3.8-8a1.25,1.25,0,0,1,.66-.2H35a1.23,1.23,0,0,1,.79.4,1,1,0,0,1,.21.79,1.11,1.11,0,0,1-.31.65,2.68,2.68,0,0,1-.4.31c-.18.11-.4.25-.67.4l-.16.09c0-.06-.07-.1-.08-.13l-.36-.58a1.62,1.62,0,0,1-.27-1.07A.94.94,0,0,1,34.2,17.14Zm-.74,8.73h-.22a2,2,0,0,1-1.65-2.15,1.43,1.43,0,0,1,.51-.9,8.26,8.26,0,0,1,1.62-1l.12,0,1.91,3.08A4,4,0,0,1,33.46,25.87Z"/><path class="cls-2" d="M21.11,35.58a2.19,2.19,0,0,1-1.15.3,1.89,1.89,0,0,1-1.57-.72,3,3,0,0,1-.59-1.93h4.27a2.91,2.91,0,0,0-3.18-3.15,3.41,3.41,0,0,0-2.51,1,3.6,3.6,0,0,0,0,5,3.45,3.45,0,0,0,2.52.95,3.37,3.37,0,0,0,2-.6A2.79,2.79,0,0,0,22,34.73l-.08,0A2,2,0,0,1,21.11,35.58Zm-3-4.59c.19-.45.45-.68.78-.68s.52.19.66.58a6.91,6.91,0,0,1,.2,2.06H17.81A6.3,6.3,0,0,1,18.11,31Z"/><path class="cls-2" d="M29.3,31.62v0a1.33,1.33,0,0,0,.88-.28.93.93,0,0,0,.35-.78,1,1,0,0,0-.31-.73,1.18,1.18,0,0,0-.82-.27,1.07,1.07,0,0,0-.68.24,2.62,2.62,0,0,0-.67.84,2.71,2.71,0,0,0-.94-.43,4.56,4.56,0,0,0-1.21-.15,3.7,3.7,0,0,0-2.22.6,1.89,1.89,0,0,0-.83,1.59,2,2,0,0,0,.34,1.11,2.18,2.18,0,0,0,1,.77,2.11,2.11,0,0,0-1.11.66,1.53,1.53,0,0,0-.41,1,1.48,1.48,0,0,0,.38,1,2,2,0,0,0,1,.58,2.58,2.58,0,0,0-1.25.31.84.84,0,0,0-.45.73c0,.46.29.8.89,1a6.59,6.59,0,0,0,2.46.36,5.88,5.88,0,0,0,3.06-.7,2.15,2.15,0,0,0,1.18-1.92,1.71,1.71,0,0,0-.7-1.46,3.08,3.08,0,0,0-1.91-.52H24.42a.68.68,0,0,1-.47-.14.4.4,0,0,1-.17-.34.46.46,0,0,1,.15-.34,1,1,0,0,1,.42-.26,3.79,3.79,0,0,0,.72.19,5.45,5.45,0,0,0,.83,0,3.72,3.72,0,0,0,2.24-.59A1.86,1.86,0,0,0,29,32.27a1.77,1.77,0,0,0-.21-.84,2,2,0,0,0-.6-.67,1.27,1.27,0,0,1,.3-.21.71.71,0,0,1,.32-.07.63.63,0,0,1,.49.19.62.62,0,0,1,.18.48.69.69,0,0,1,0,.25A.91.91,0,0,1,29.3,31.62Zm-4.49,5.89H27a1.56,1.56,0,0,1,.92.22.77.77,0,0,1,.3.66,1.07,1.07,0,0,1-.71.94,4.19,4.19,0,0,1-1.85.34,3.13,3.13,0,0,1-1.52-.31,1,1,0,0,1-.57-.89.87.87,0,0,1,.31-.72A1.43,1.43,0,0,1,24.81,37.51Zm1.66-3.73a.62.62,0,0,1-.57.47.61.61,0,0,1-.57-.47,5,5,0,0,1-.16-1.51,4.65,4.65,0,0,1,.17-1.5c.12-.31.31-.48.56-.48a.63.63,0,0,1,.57.48,4.89,4.89,0,0,1,.18,1.5A4.87,4.87,0,0,1,26.47,33.78Z"/><path class="cls-2" d="M37.83,36.36l-.16,0a.63.63,0,0,1-.59-.28A2.33,2.33,0,0,1,36.9,35v-.57c0-.2,0-.47,0-.84s0-.58,0-.75v-.45a2,2,0,0,0-.81-1.77,4.46,4.46,0,0,0-2.54-.57,4,4,0,0,0-2.05.47,1.39,1.39,0,0,0-.77,1.23,1,1,0,0,0,.35.81,1.37,1.37,0,0,0,.92.32,1.79,1.79,0,0,0,.86-.2,1.43,1.43,0,0,0,.58-.59l-.14,0h-.12a.6.6,0,0,1-.48-.21,1,1,0,0,1-.17-.61,1.07,1.07,0,0,1,.26-.75.91.91,0,0,1,.7-.27.89.89,0,0,1,.76.36,1.72,1.72,0,0,1,.26,1V33l-1,.18c-.58.11-1,.2-1.28.28a6.05,6.05,0,0,0-.72.24,2.1,2.1,0,0,0-.84.64,1.65,1.65,0,0,0-.26,1A1.49,1.49,0,0,0,31,36.49a2.21,2.21,0,0,0,1.44.45,2.44,2.44,0,0,0,1.41-.41,1.79,1.79,0,0,0,.74-1.1s0,.08,0,.18,0,.14,0,.16a1.28,1.28,0,0,0,.54.89,2.08,2.08,0,0,0,1.22.31,2.63,2.63,0,0,0,.92-.17,1.7,1.7,0,0,0,.7-.45v0Zm-3.3-1.72a1.63,1.63,0,0,1-.27,1,.84.84,0,0,1-.72.39.67.67,0,0,1-.58-.3,1.48,1.48,0,0,1-.2-.82,1.66,1.66,0,0,1,.3-1,1.48,1.48,0,0,1,.92-.5l.57-.13Z"/><path class="cls-2" d="M45.58,36.33a2.65,2.65,0,0,1-.11-.94v-3a2.47,2.47,0,0,0-.56-1.7,2,2,0,0,0-1.57-.62,2.27,2.27,0,0,0-1.47.49A2.7,2.7,0,0,0,41,32V30.21H37.91v0a1.41,1.41,0,0,1,.59.52,2.44,2.44,0,0,1,.12.94v3.69a2.43,2.43,0,0,1-.11.94,1.24,1.24,0,0,1-.52.49v0h3.66v0a1.24,1.24,0,0,1-.52-.49,2.65,2.65,0,0,1-.11-.94V33a2.4,2.4,0,0,1,.3-1.31.94.94,0,0,1,.84-.46.81.81,0,0,1,.67.3,1.26,1.26,0,0,1,.24.81v3.06a2.73,2.73,0,0,1-.1.94,1.34,1.34,0,0,1-.53.49v0H46.1v0A1.3,1.3,0,0,1,45.58,36.33Z"/><path class="cls-2" d="M51,35.47a1,1,0,0,1-.76.37.72.72,0,0,1-.6-.27,1.29,1.29,0,0,1-.21-.8V30.55H51.4l.06-.34h-2V27.88h-.13a3.83,3.83,0,0,1-1.12,1.64,4.15,4.15,0,0,1-1.84.88v.15h.72l0,4.17a2.29,2.29,0,0,0,.56,1.67,2.39,2.39,0,0,0,3.21-.06,3.3,3.3,0,0,0,.79-1.89l-.16-.06A2.46,2.46,0,0,1,51,35.47Z"/><path class="cls-2" d="M9.22,36a3.08,3.08,0,0,1-1.73.47H5.75V32.2H7a2.1,2.1,0,0,1,1.27.3,2.51,2.51,0,0,1,.69,1.16H9V30.28h0a2.61,2.61,0,0,1-.71,1.21A2,2,0,0,1,7,31.81H5.75v-4H7.28A3.21,3.21,0,0,1,9,28.26a4.79,4.79,0,0,1,1.41,1.68h0L10,27.34a.91.91,0,0,1-.34.1,5.08,5.08,0,0,1-.6,0H2.49v0a1.6,1.6,0,0,1,.59.61,2.44,2.44,0,0,1,.15,1v6.12a2.44,2.44,0,0,1-.15,1,1.49,1.49,0,0,1-.59.62v0h7.87l.43-2.74h0A5.69,5.69,0,0,1,9.22,36Z"/><path class="cls-2" d="M14.4,36.33a2.43,2.43,0,0,1-.11-.94V26.81H11.1v0a1.44,1.44,0,0,1,.63.53,2,2,0,0,1,.16.94v7.09a2.65,2.65,0,0,1-.11.94,1.26,1.26,0,0,1-.51.49v0h3.65v0A1.24,1.24,0,0,1,14.4,36.33Z"/><path class="cls-2" d="M6.55,18.35,1.82,16.77a.57.57,0,0,0-.18,0,.58.58,0,0,0-.19,1.13l4.74,1.58a.57.57,0,0,0,.18,0,.57.57,0,0,0,.55-.4A.57.57,0,0,0,6.55,18.35Z"/><path class="cls-2" d="M33.2,12a.76.76,0,0,0,.11.14.57.57,0,0,0,.4.16.59.59,0,0,0,.42-.17L37.6,8.57a.59.59,0,0,0,0-.83.55.55,0,0,0-.4-.16.59.59,0,0,0-.42.18L33.3,11.35A.59.59,0,0,0,33.2,12Z"/><path class="cls-2" d="M11.5,11.23a.62.62,0,0,0,.39-.15.59.59,0,0,0,0-.82L8.59,6.55a.57.57,0,0,0-.43-.19.49.49,0,0,0-.24,0,.31.31,0,0,0-.15.1.58.58,0,0,0,0,.82L11.06,11A.63.63,0,0,0,11.5,11.23Z"/><path class="cls-2" d="M25.2,7.07a.55.55,0,0,0,.18,0,.58.58,0,0,0,.55-.4l1.51-4.76a.59.59,0,0,0-.22-.65.8.8,0,0,0-.16-.08.57.57,0,0,0-.18,0,.59.59,0,0,0-.55.41L24.82,6.34A.58.58,0,0,0,25.2,7.07Z"/><path class="cls-2" d="M6.86,23.35a8,8,0,0,0,.67.83,10.08,10.08,0,0,0,2.1,2.13L10,26.1v-.32h.68a29.87,29.87,0,0,1-2.52-2.42S6.87,23.34,6.86,23.35Z"/></svg>