<svg id="Layer_1" data-name="Layer 1" xmlns="http://www.w3.org/2000/svg" viewBox="0 0 61 49"><defs><style>.cls-1{fill:#091d1e;}</style></defs><path class="cls-1" d="M23,43.42a2.73,2.73,0,0,1-1.47.38,2.47,2.47,0,0,1-2-.92,3.83,3.83,0,0,1-.76-2.49h5.5a3.76,3.76,0,0,0-4.09-4.06,4.47,4.47,0,0,0-3.24,1.26,4.64,4.64,0,0,0,0,6.4,4.44,4.44,0,0,0,3.25,1.23,4.31,4.31,0,0,0,2.59-.77,3.65,3.65,0,0,0,1.43-2.12l-.11-.06A2.63,2.63,0,0,1,23,43.42Zm-3.85-5.91c.24-.59.57-.88,1-.88s.66.24.85.74A8.89,8.89,0,0,1,21.29,40H18.78A7.75,7.75,0,0,1,19.18,37.51Z"/><path class="cls-1" d="M33.39,38.32v0A1.75,1.75,0,0,0,34.53,38,1.19,1.19,0,0,0,35,37a1.23,1.23,0,0,0-.4-.95,1.51,1.51,0,0,0-1-.34,1.38,1.38,0,0,0-.88.3,3.6,3.6,0,0,0-.87,1.08,3.58,3.58,0,0,0-1.2-.55A6.29,6.29,0,0,0,29,36.33a4.78,4.78,0,0,0-2.86.77,2.52,2.52,0,0,0-.63,3.48,2.71,2.71,0,0,0,1.23,1,2.72,2.72,0,0,0-1.42.85,1.92,1.92,0,0,0-.53,1.35,1.86,1.86,0,0,0,.49,1.32,2.48,2.48,0,0,0,1.34.74,3.32,3.32,0,0,0-1.62.41,1.06,1.06,0,0,0-.58.93c0,.6.38,1,1.15,1.36a8.51,8.51,0,0,0,3.17.47,7.49,7.49,0,0,0,3.94-.91,2.76,2.76,0,0,0,1.52-2.47,2.24,2.24,0,0,0-.9-1.89,4,4,0,0,0-2.46-.66H27.11a.89.89,0,0,1-.61-.18.52.52,0,0,1-.22-.44.65.65,0,0,1,.19-.44,1.39,1.39,0,0,1,.54-.33,5.17,5.17,0,0,0,.94.24A7.12,7.12,0,0,0,29,42a4.8,4.8,0,0,0,2.88-.76A2.42,2.42,0,0,0,33,39.16a2.22,2.22,0,0,0-.27-1.08,2.45,2.45,0,0,0-.77-.87,1.41,1.41,0,0,1,.38-.27.87.87,0,0,1,.42-.1.81.81,0,0,1,.63.25,1,1,0,0,1,.18.94A1.34,1.34,0,0,1,33.39,38.32ZM27.61,45.9h2.87a2.05,2.05,0,0,1,1.19.28,1,1,0,0,1,.38.86,1.35,1.35,0,0,1-.91,1.2,5.31,5.31,0,0,1-2.38.45,4.05,4.05,0,0,1-2-.41,1.27,1.27,0,0,1-.73-1.13,1.13,1.13,0,0,1,.39-.94A1.9,1.9,0,0,1,27.61,45.9Zm2.14-4.81a.79.79,0,0,1-.73.61c-.34,0-.58-.2-.73-.61a6,6,0,0,1-.22-1.93,5.81,5.81,0,0,1,.23-1.94c.15-.4.39-.62.72-.62a.81.81,0,0,1,.73.62A6.08,6.08,0,0,1,30,39.16,5.93,5.93,0,0,1,29.75,41.09Z"/><path class="cls-1" d="M44.1,44.42l-.2,0a.81.81,0,0,1-.76-.36,2.94,2.94,0,0,1-.23-1.39V42c0-.25,0-.61,0-1.08s0-.74,0-1v-.58a2.63,2.63,0,0,0-1-2.29,5.73,5.73,0,0,0-3.27-.73,5,5,0,0,0-2.64.61,1.78,1.78,0,0,0-1,1.58,1.3,1.3,0,0,0,.46,1,1.75,1.75,0,0,0,1.18.41,2.17,2.17,0,0,0,1.11-.26,1.7,1.7,0,0,0,.74-.76.41.41,0,0,1-.17,0h-.16a.78.78,0,0,1-.61-.27,1.22,1.22,0,0,1-.22-.79,1.38,1.38,0,0,1,.33-1,1.17,1.17,0,0,1,.9-.35,1.15,1.15,0,0,1,1,.46,2.27,2.27,0,0,1,.34,1.29v1.68l-1.32.23c-.74.14-1.28.25-1.65.36A8.2,8.2,0,0,0,36,41a2.55,2.55,0,0,0-1.08.83A2.11,2.11,0,0,0,34.57,43a1.91,1.91,0,0,0,.7,1.57,2.85,2.85,0,0,0,1.86.58,3.09,3.09,0,0,0,1.81-.53,2.3,2.3,0,0,0,1-1.42s0,.11,0,.23,0,.19,0,.22a1.58,1.58,0,0,0,.69,1.13,2.73,2.73,0,0,0,1.57.41A3.49,3.49,0,0,0,43.4,45a2.41,2.41,0,0,0,.89-.58v0ZM39.85,42.2a2.13,2.13,0,0,1-.35,1.28,1.09,1.09,0,0,1-.92.5.84.84,0,0,1-.75-.38,1.91,1.91,0,0,1-.26-1.06A2.17,2.17,0,0,1,38,41.19a1.92,1.92,0,0,1,1.19-.65l.74-.16Z"/><path class="cls-1" d="M54.08,44.39A3.62,3.62,0,0,1,54,43.17V39.32a3.18,3.18,0,0,0-.73-2.19,2.6,2.6,0,0,0-2-.8,2.87,2.87,0,0,0-1.89.64,3.32,3.32,0,0,0-1.1,1.78V36.5h-4v0a1.77,1.77,0,0,1,.76.66,3,3,0,0,1,.16,1.22v4.75A3.54,3.54,0,0,1,45,44.39a1.71,1.71,0,0,1-.67.63v0H49v0a1.71,1.71,0,0,1-.67-.63,3.54,3.54,0,0,1-.14-1.22V40.08a3.08,3.08,0,0,1,.39-1.69,1.23,1.23,0,0,1,1.08-.59,1,1,0,0,1,.86.39,1.57,1.57,0,0,1,.31,1v3.94a3.62,3.62,0,0,1-.13,1.22A1.75,1.75,0,0,1,50,45v0h4.72v0A1.68,1.68,0,0,1,54.08,44.39Z"/><path class="cls-1" d="M60.23,43.27a1.21,1.21,0,0,1-1,.49.9.9,0,0,1-.77-.36,1.67,1.67,0,0,1-.27-1V36.93h2.5l.09-.43H58.22v-3h-.17a4.77,4.77,0,0,1-1.45,2.1,5.15,5.15,0,0,1-2.37,1.14v.19h.93l0,5.37a3,3,0,0,0,.71,2.15,2.65,2.65,0,0,0,2,.77A2.79,2.79,0,0,0,60,44.39a4.36,4.36,0,0,0,1-2.45l-.21-.07A3.08,3.08,0,0,1,60.23,43.27Z"/><path class="cls-1" d="M8.67,44a4,4,0,0,1-2.23.6H4.2V39.06H5.77a2.69,2.69,0,0,1,1.64.39,3.17,3.17,0,0,1,.88,1.49h0V36.59h0a3.45,3.45,0,0,1-.91,1.56,2.57,2.57,0,0,1-1.61.41H4.2V33.43h2A4,4,0,0,1,8.41,34a6.2,6.2,0,0,1,1.81,2.17h0l-.59-3.35a1.59,1.59,0,0,1-.44.12,7.64,7.64,0,0,1-.77,0H0v0a2.06,2.06,0,0,1,.76.78A3.1,3.1,0,0,1,1,35.05v7.89a3.15,3.15,0,0,1-.19,1.28A2.09,2.09,0,0,1,0,45v0H10.14l.55-3.52h0A7.45,7.45,0,0,1,8.67,44Z"/><path class="cls-1" d="M15,44.39a3.31,3.31,0,0,1-.14-1.22V32.11H10.71v0a1.87,1.87,0,0,1,.82.67,2.72,2.72,0,0,1,.2,1.21v9.14a3.54,3.54,0,0,1-.14,1.22,1.67,1.67,0,0,1-.66.63v0h4.7v0A1.64,1.64,0,0,1,15,44.39Z"/><path class="cls-1" d="M6.05,1a2.87,2.87,0,0,0-2,.69,2.34,2.34,0,0,0-.77,1.82A2.25,2.25,0,0,0,4,5.29,7.6,7.6,0,0,0,6.86,6.65a24.39,24.39,0,0,1,2.57.93,7.9,7.9,0,0,1,1.27.77A4.36,4.36,0,0,1,11.94,10a5.19,5.19,0,0,1,.41,2.15,4.47,4.47,0,0,1-1.73,3.65,6.86,6.86,0,0,1-4.43,1.39A7.89,7.89,0,0,1,5,17.06a13.71,13.71,0,0,1-1.58-.33c-.42-.11-.72-.18-.91-.21a3.37,3.37,0,0,0-.5-.05,2.11,2.11,0,0,0-.77.15,3.7,3.7,0,0,0-.84.52L0,11.8H.05a10.83,10.83,0,0,0,2.8,3.57,5.31,5.31,0,0,0,3.32,1.31A3.41,3.41,0,0,0,8.47,16a2.56,2.56,0,0,0,.82-2,2.4,2.4,0,0,0-.4-1.38,3.37,3.37,0,0,0-1.25-1,9.23,9.23,0,0,0-1-.41c-.49-.19-1.13-.42-1.91-.69a8,8,0,0,1-3.61-2,4.32,4.32,0,0,1-1-2.94A4.41,4.41,0,0,1,1.76,1.92,6.53,6.53,0,0,1,6.05.58,7.82,7.82,0,0,1,7.12.66C7.48.71,8,.82,8.56,1c.4.11.68.18.86.21a2.79,2.79,0,0,0,.47,0,1.61,1.61,0,0,0,.6-.12,3.83,3.83,0,0,0,.78-.52l.09,4.65h0A11.47,11.47,0,0,0,8.79,2,4.39,4.39,0,0,0,6.05,1Z"/><path class="cls-1" d="M25.43,11.11a5.54,5.54,0,0,1-1.81,4.27,6.41,6.41,0,0,1-4.52,1.67,6.43,6.43,0,0,1-4.52-1.67,5.57,5.57,0,0,1-1.8-4.27,5.52,5.52,0,0,1,1.8-4.24A6.38,6.38,0,0,1,19.1,5.2a6.36,6.36,0,0,1,4.52,1.67A5.49,5.49,0,0,1,25.43,11.11Zm-6.74-9a2,2,0,0,1-.6,1.43,1.93,1.93,0,0,1-1.43.59,1.89,1.89,0,0,1-1.41-.59,2,2,0,0,1-.59-1.43A2,2,0,0,1,15.25.61,1.87,1.87,0,0,1,16.66,0a1.91,1.91,0,0,1,1.43.61A2,2,0,0,1,18.69,2.07Zm-1.54,9a13.49,13.49,0,0,0,.47,4.22c.31.88.81,1.33,1.48,1.33s1.17-.45,1.49-1.33a13.8,13.8,0,0,0,.47-4.22,13.69,13.69,0,0,0-.47-4.2c-.32-.88-.81-1.32-1.49-1.32S17.93,6,17.62,6.91A13.38,13.38,0,0,0,17.15,11.11Zm6.39-9a2,2,0,0,1-.6,1.43,1.91,1.91,0,0,1-1.42.59,2,2,0,0,1-1.45-.59,2,2,0,0,1-.6-1.43,2,2,0,0,1,.6-1.46A1.94,1.94,0,0,1,21.52,0a1.89,1.89,0,0,1,1.42.61A2,2,0,0,1,23.54,2.07Z"/><path class="cls-1" d="M31.43,15.19a1.59,1.59,0,0,0,1.3-.65,4.11,4.11,0,0,0,.75-1.86l.28.09A5.77,5.77,0,0,1,32.4,16a3.71,3.71,0,0,1-2.81,1.11,3.56,3.56,0,0,1-2.7-1,3.9,3.9,0,0,1-.95-2.87L26,6.1H24.74V5.85A7,7,0,0,0,27.9,4.33a6.49,6.49,0,0,0,1.92-2.81h.23v4H33.5l-.11.58H30.05v7.25a2.26,2.26,0,0,0,.36,1.37A1.22,1.22,0,0,0,31.43,15.19Z"/><path class="cls-1" d="M40.39,15.19a1.6,1.6,0,0,0,1.3-.65,4.11,4.11,0,0,0,.75-1.86l.27.09A5.84,5.84,0,0,1,41.36,16a3.71,3.71,0,0,1-2.81,1.11,3.56,3.56,0,0,1-2.7-1,3.94,3.94,0,0,1-1-2.87l0-7.15H33.7V5.85a7.07,7.07,0,0,0,3.16-1.52,6.49,6.49,0,0,0,1.92-2.81H39v4h3.45l-.11.58H39v7.25a2.26,2.26,0,0,0,.36,1.37A1.22,1.22,0,0,0,40.39,15.19Z"/><path class="cls-1" d="M56,34.58H49.71l-1-1.06a8.3,8.3,0,0,1-2.28,1,10.09,10.09,0,0,1-2.61.33,7.71,7.71,0,0,1-4.5-1.21,3.76,3.76,0,0,1-1.74-3.23,3.43,3.43,0,0,1,1.18-2.67,6.5,6.5,0,0,1,3.31-1.44l-.95-1.05a6,6,0,0,1-1.1-1.7,4.7,4.7,0,0,1-.38-1.81,4.09,4.09,0,0,1,1.52-3.33,6,6,0,0,1,3.89-1.24,6.74,6.74,0,0,1,3.81,1,3,3,0,0,1,1.49,2.62,3.15,3.15,0,0,1-1.06,2.44,6.18,6.18,0,0,1-3,1.37l4.91,5.5a7.15,7.15,0,0,0,.59-1.3,4.87,4.87,0,0,0,.25-1.33,1.87,1.87,0,0,0-.32-1.28,4.05,4.05,0,0,0-1.58-1v-.07h4.67v.07a3.5,3.5,0,0,0-1.3.77,3.22,3.22,0,0,0-.64,1.47,8.92,8.92,0,0,1-.49,1.62,12.54,12.54,0,0,1-.74,1.52l1.85,2.07a8.43,8.43,0,0,0,1.06,1,8.26,8.26,0,0,0,1.44.85ZM41.34,29.52a4.26,4.26,0,0,0,1.14,3.08,4,4,0,0,0,3,1.19,4.83,4.83,0,0,0,1.39-.21,7.11,7.11,0,0,0,1.41-.6l-5.87-6.43a3.32,3.32,0,0,0-.79,1.26A4.88,4.88,0,0,0,41.34,29.52Zm1.74-9.85A3,3,0,0,0,43.41,21a8.33,8.33,0,0,0,1.27,1.7L46,24.19a4.25,4.25,0,0,0,1.14-1.51,4.64,4.64,0,0,0,.41-1.93,3.75,3.75,0,0,0-.65-2.31,2.13,2.13,0,0,0-1.78-.86,1.94,1.94,0,0,0-1.48.57A2.09,2.09,0,0,0,43.08,19.67Z"/></svg>