<svg id="Layer_1" data-name="Layer 1" xmlns="http://www.w3.org/2000/svg" viewBox="0 0 44 44"><defs><style>.cls-1{fill:#140a08;}</style></defs><path class="cls-1" d="M2,40.22V3.79c.05-.11.1-.22.14-.33A2.18,2.18,0,0,1,4.32,2H39.66a2.32,2.32,0,0,1,.7.09A2.21,2.21,0,0,1,42,4.39V39.8a2.18,2.18,0,0,1-1.31,2L40.3,42H29.56c0-.22,0-.44,0-.66V27.08c0-.6,0-.6.59-.6,1.38,0,2.77,0,4.15,0,.3,0,.45-.07.49-.4.21-1.69.44-3.38.65-5.07.07-.5.06-.51-.47-.51H30.13c-.55,0-.55,0-.55-.56,0-1.1,0-2.19,0-3.29a6.41,6.41,0,0,1,.14-1.31,1.78,1.78,0,0,1,1.32-1.42,6.09,6.09,0,0,1,1.47-.23c.94,0,1.88,0,2.83,0,.24,0,.39-.07.39-.35,0-1.57,0-3.13,0-4.7a.45.45,0,0,0-.3-.33,25.78,25.78,0,0,0-5.89-.08,6.74,6.74,0,0,0-5.94,5.67,13.8,13.8,0,0,0-.2,2.23c0,1.29,0,2.58,0,3.86,0,.41-.13.53-.53.52-1.37,0-2.74,0-4.12,0-.58,0-.58,0-.58.57q0,2.43,0,4.86c0,.54,0,.55.56.55H23c.3,0,.44.1.42.41,0,.15,0,.3,0,.45v14c0,.22,0,.44,0,.66H3.78A2.55,2.55,0,0,1,2,40.22Z"/></svg>