<svg id="Layer_1" data-name="Layer 1" xmlns="http://www.w3.org/2000/svg" viewBox="0 0 44 44"><defs><style>.cls-1{fill:#140a08;}</style></defs><g id="IStjL8.tif"><path class="cls-1" d="M12,2H39.16V22l-.27.25q-6.2,6.2-12.38,12.38a.62.62,0,0,1-.48.2H20.87a.62.62,0,0,0-.49.21l-6.71,6.71-.23.22a2,2,0,0,1,0-.31V35.21c0-.34,0-.34-.33-.34H5.19c-.34,0-.34,0-.34-.33q0-12.57,0-25.14A.58.58,0,0,1,5,8.94l6.7-6.7Zm7.9,29.18.05,0L20.1,31l4.55-4.56a.65.65,0,0,1,.52-.21h5.06a.74.74,0,0,0,.6-.24q2.61-2.62,5.23-5.23a.74.74,0,0,0,.24-.57q0-6.81,0-13.61V5.1c0-.17,0-.25-.22-.24H13.7c-.23,0-.25,0-.25.26V26c0,.17.06.26.24.25h5.85c.33,0,.33,0,.33.33v4.58Z"/><path class="cls-1" d="M24.16,14.17v4c0,.29,0,.3-.3.3H21.54c-.24,0-.27,0-.27-.27V10.1c0-.2.07-.26.26-.26H23.9c.25,0,.26,0,.26.26Z"/><path class="cls-1" d="M32,14.15v4c0,.29,0,.3-.3.3h-2.3c-.26,0-.27,0-.27-.26,0-2.7,0-5.39,0-8.09,0-.2.07-.26.26-.26h2.37c.2,0,.25.08.25.27C32,11.46,32,12.8,32,14.15Z"/></g></svg>