<svg id="Layer_1" data-name="Layer 1" xmlns="http://www.w3.org/2000/svg" viewBox="0 0 44 44"><defs><style>.cls-1{fill:#140a08;}</style></defs><g id="UIsOLY.tif"><path class="cls-1" d="M16.2,2H27.83L28,2l2.84.12a14.24,14.24,0,0,1,3.65.67,10.11,10.11,0,0,1,6,5.12,13.53,13.53,0,0,1,1.34,5.62c0,.91.08,1.82.11,2.73V27.69c0,.09,0,.17,0,.25,0,.75,0,1.5-.08,2.24a16.38,16.38,0,0,1-.47,3.49,10.3,10.3,0,0,1-4.64,6.45,12.22,12.22,0,0,1-5.8,1.7c-1.29.09-2.58.14-3.88.15-2.54,0-5.08,0-7.62,0-2.28,0-4.56,0-6.83-.2a14.09,14.09,0,0,1-2.88-.55,10.19,10.19,0,0,1-5.89-4.48A12.45,12.45,0,0,1,2.18,31C2.1,29.73,2,28.48,2,27.24c0-4.17-.08-8.34.06-12.5a23,23,0,0,1,.32-3.53A11.15,11.15,0,0,1,4.18,6.77,10.74,10.74,0,0,1,12,2.28a35.28,35.28,0,0,1,4-.24A2.3,2.3,0,0,0,16.2,2ZM5.63,22c0,2.93,0,5.86.16,8.78a10.58,10.58,0,0,0,.5,2.67,6.5,6.5,0,0,0,3.55,4,9.22,9.22,0,0,0,3.3.79c1.28.08,2.56.14,3.84.15,2.82,0,5.65,0,8.47,0a56.07,56.07,0,0,0,6.08-.23,8.21,8.21,0,0,0,3.13-1A6.75,6.75,0,0,0,38,32.6a21,21,0,0,0,.38-4.11c0-1.67,0-3.34,0-5,0-3.42.08-6.84-.15-10.26a10.61,10.61,0,0,0-.52-2.67,6.54,6.54,0,0,0-3.91-4.14,10.56,10.56,0,0,0-3.43-.67c-1.11-.06-2.23-.11-3.35-.11-4.36,0-8.73-.11-13.09.1a13.13,13.13,0,0,0-2.85.39,6.63,6.63,0,0,0-4.2,3.11,8.73,8.73,0,0,0-1.1,3.9q-.12,1.95-.15,3.9C5.62,18.68,5.63,20.33,5.63,22Z"/><path class="cls-1" d="M32.29,22A10.28,10.28,0,1,1,22,11.72,10.28,10.28,0,0,1,32.29,22ZM15.35,22A6.66,6.66,0,1,0,22,15.33,6.68,6.68,0,0,0,15.35,22Z"/><path class="cls-1" d="M35.06,11.37a2.4,2.4,0,0,1-2.42,2.39,2.41,2.41,0,1,1,0-4.82A2.39,2.39,0,0,1,35.06,11.37Z"/></g></svg>