<svg id="Layer_1" data-name="Layer 1" xmlns="http://www.w3.org/2000/svg" viewBox="0 0 44 44"><defs><style>.cls-1{fill:#140a08;}</style></defs><g id="h8LUZE.tif"><path class="cls-1" d="M22.72,4.5l.91.1a13,13,0,0,1,6.48,2.6A13.17,13.17,0,0,1,35.35,16a13.11,13.11,0,0,1-2.93,10.55A13.17,13.17,0,0,1,25,31.14a12.77,12.77,0,0,1-3.54.32A13.51,13.51,0,0,1,8.7,20,13.14,13.14,0,0,1,10,12a13.28,13.28,0,0,1,6-6,13.09,13.09,0,0,1,4.78-1.38l.54-.06ZM22,29.35A11.37,11.37,0,1,0,10.67,18,11.39,11.39,0,0,0,22,29.35Z"/><path class="cls-1" d="M.5,17.08c0-.17,0-.34,0-.51s0-.18.18-.18h1.8c.12,0,.17,0,.16.17a18.16,18.16,0,0,0,0,3,19.32,19.32,0,0,0,1,4.82,19.1,19.1,0,0,0,3.49,6.14,19.44,19.44,0,0,0,6.52,5A18.52,18.52,0,0,0,19,37.14a19.4,19.4,0,0,0,3.88.22A20.2,20.2,0,0,0,27,36.74a18.92,18.92,0,0,0,6.35-3A19.34,19.34,0,0,0,38.61,28a18.93,18.93,0,0,0,2.57-7.24,19.64,19.64,0,0,0,.19-3.34,7.89,7.89,0,0,0,0-.84c0-.12,0-.17.16-.17h1.79c.14,0,.19.05.19.18s0,.34,0,.51v1.78c0,.05,0,.09,0,.15-.06.64-.09,1.28-.17,1.92a20.71,20.71,0,0,1-1.9,6.35,21.46,21.46,0,0,1-6.07,7.59,21.31,21.31,0,0,1-11.7,4.57l-.74.06H21.11l-.13,0a19.85,19.85,0,0,1-3-.34,20.82,20.82,0,0,1-6.49-2.36,21.41,21.41,0,0,1-5.62-4.54A21.34,21.34,0,0,1,.56,19.6L.5,18.86Z"/><path class="cls-1" d="M5.66,16.39h.87c.14,0,.18,0,.17.19A15.34,15.34,0,0,0,20.12,33.25a15.36,15.36,0,0,0,2.71.09A15.31,15.31,0,0,0,33,28.68a15.19,15.19,0,0,0,4.07-7.91A15.9,15.9,0,0,0,37.37,18c0-.49,0-1-.07-1.47,0-.12,0-.16.14-.16h1.83c.12,0,.15.05.16.17a17.36,17.36,0,0,1-2,9.64,17,17,0,0,1-2.65,3.71,17.46,17.46,0,0,1-11.13,5.5,17.62,17.62,0,0,1-6.3-.54,17.23,17.23,0,0,1-6.55-3.42,17.53,17.53,0,0,1-4.59-5.88A16.59,16.59,0,0,1,4.67,20.3c-.09-.82-.13-1.65-.16-2.47,0-.42,0-.85.06-1.28a.14.14,0,0,1,.16-.16Z"/><path class="cls-1" d="M14.65,19.84c.34,0,.68,0,1,0,.11,0,.15,0,.17.16a2,2,0,0,0,2.41,1.85,2.65,2.65,0,0,0,1.12-.34,1.43,1.43,0,0,0,.08-2.45,2.93,2.93,0,0,0-1.12-.48c-.74-.16-1.48-.29-2.2-.49a3.53,3.53,0,0,1-1.71-1,3,3,0,0,1-.77-2.2A3.37,3.37,0,0,1,15,12.21a4.35,4.35,0,0,1,2.11-.79,5.64,5.64,0,0,1,2.55.18,3.56,3.56,0,0,1,2.48,3c.09.52,0,.42-.37.42H20c-.11,0-.17,0-.18-.16a1.59,1.59,0,0,0-1.37-1.52,2.65,2.65,0,0,0-1.55.11A1.36,1.36,0,0,0,16,14.7a1.21,1.21,0,0,0,.65,1.21,3.53,3.53,0,0,0,.84.31c.77.18,1.55.32,2.32.52a5.88,5.88,0,0,1,1.27.53,2.74,2.74,0,0,1,1.33,1.81,4,4,0,0,1-.14,2.38,3.15,3.15,0,0,1-1.75,1.83,5.84,5.84,0,0,1-4.84.07,3.65,3.65,0,0,1-2.19-3.05c-.06-.46,0-.47.41-.47Z"/><path class="cls-1" d="M24,17.57V11.85c0-.27,0-.27.28-.27h1.93c.24,0,.24,0,.24.25v9.48c0,.13,0,.19.18.18h4.08c.25,0,.25,0,.25.24,0,.55,0,1.1,0,1.64,0,.16-.06.21-.21.21H24.24c-.19,0-.22-.07-.22-.23Z"/></g></svg>